Coordinates
version=1
nRows=11
nColumns=42
inDegrees=yes

Units are S.I. units (second, meters, Newtons, ...)
If the header above contains a line with 'inDegrees', this indicates whether rotational values are in degrees (yes) or radians (no).

endheader
time	pelvis_tilt	pelvis_list	pelvis_rotation	pelvis_tx	pelvis_ty	pelvis_tz	hip_flexion_r	hip_adduction_r	hip_rotation_r	knee_angle_r	knee_adduction_r	knee_angle_r_beta	ankle_angle_r	subtalar_angle_r	mtp_angle_r	hip_flexion_l	hip_adduction_l	hip_rotation_l	knee_angle_l	knee_adduction_l	knee_angle_l_beta	ankle_angle_l	subtalar_angle_l	mtp_angle_l	lumbar_extension	lumbar_bending	lumbar_rotation	arm_flex_r	arm_add_r	arm_rot_r	elbow_flex_r	pro_sup_r	wrist_flex_r	wrist_dev_r	arm_flex_l	arm_add_l	arm_rot_l	elbow_flex_l	pro_sup_l	wrist_flex_l	wrist_dev_l
      3.21000000	      2.74771689	     -1.70274891	     -1.35512987	      1.88219249	      0.91726239	     -0.12874190	     -8.37809552	     -4.26805780	      4.50747441	     44.05656187	      8.52084233	      0.76893206	    -14.99058268	    -18.79143057	     -7.50003589	     14.66989149	     -4.56635697	      1.19835701	     13.22564869	      7.90921031	      0.23083112	     -9.59535115	    -18.46090533	     -7.50003589	    -13.95420505	     -0.21574937	     -0.11613951	     -2.29789346	    -15.26954876	      1.77702193	     37.17829347	     90.00000001	      0.00000000	      0.00000000	     -6.31454137	     -7.97697093	    -14.78915610	     22.14045196	     90.00000001	      0.00000000	      0.00000000
      3.22000000	      2.87067948	     -1.85116382	     -1.14684881	      1.89281462	      0.92022693	     -0.13059725	     -6.75264253	     -4.02755472	      3.52080954	     46.65070564	      8.00908014	      0.81420841	    -14.62640448	    -18.89313209	     -7.50003540	     13.45065108	     -4.51135159	      1.12786708	     12.62422508	      7.78730695	      0.22033429	     -9.21179207	    -18.30448628	     -7.50003540	    -14.06296948	      0.04740971	     -0.43440053	     -2.62181698	    -15.02866323	      1.83585406	     36.70607628	     90.00000001	      0.00000000	      0.00000000	     -5.51600891	     -8.11260486	    -14.56819109	     22.77748617	     90.00000001	      0.00000000	      0.00000000
      3.23000000	      2.97151132	     -2.00472331	     -0.90358211	      1.90336711	      0.92307941	     -0.13241265	     -5.13059176	     -3.78297254	      2.42143441	     48.96027596	      7.44259441	      0.85451802	    -13.87655666	    -18.94476251	     -7.50003492	     12.24535575	     -4.46405449	      1.15042358	     11.97481125	      7.65749638	      0.20899988	     -8.86833308	    -18.16388430	     -7.50003492	    -14.14179593	      0.30901305	     -0.81580931	     -2.93508479	    -14.77822050	      1.90277326	     36.19344120	     90.00000001	      0.00000000	      0.00000000	     -4.72810220	     -8.27030727	    -14.31309636	     23.46070094	     90.00000001	      0.00000000	      0.00000000
      3.24000000	      3.03393637	     -2.12788658	     -0.46177767	      1.91388986	      0.92574990	     -0.13425874	     -3.50616335	     -3.52978144	      0.45134754	     50.97617106	      6.33743904	      0.88970203	    -12.69301984	    -18.81865321	     -7.50003378	     11.06926684	     -4.34721367	      1.73172031	     11.20085784	      7.54003651	      0.19549185	     -8.71323445	    -18.23158802	     -7.50003378	    -14.14498014	      0.55298871	     -1.47348695	     -2.96593830	    -14.36320191	      1.91743158	     35.11297821	     90.00000001	      0.00000000	      0.00000000	     -4.24052015	     -8.60282096	    -13.46704752	     24.55860695	     90.00000001	      0.00000000	      0.00000000
      3.25000000	      3.15566266	     -2.27337142	     -0.15624957	      1.92431492	      0.92838682	     -0.13593351	     -2.04250750	     -3.29863641	     -0.31511281	     52.53167914	      6.08179406	      0.91685076	    -11.55722968	    -18.85021433	     -7.50003027	      9.81743688	     -4.30535336	      1.93449522	     10.45680247	      7.39058343	      0.18250563	     -8.46627921	    -18.16665674	     -7.50003027	    -14.22060926	      0.79690908	     -1.94003650	     -2.98863420	    -13.91247959	      1.55745549	     33.99550210	     90.00000001	      0.00000000	      0.00000000	     -4.20636965	     -9.28828628	    -10.66211245	     26.63687909	     90.00000001	      0.00000000	      0.00000000
      3.26000000	      3.29831086	     -2.42933377	      0.21243178	      1.93473541	      0.93084482	     -0.13763212	     -0.68063049	     -3.04859215	     -0.92235013	     53.72359925	      6.01504925	      0.93765369	    -10.28166924	    -18.85203467	     -7.50002964	      8.58352450	     -4.30454501	      2.12057289	      9.76621203	      7.28361683	      0.17045256	     -8.15363628	    -17.93626278	     -7.50002964	    -14.31233732	      1.07285774	     -2.42695383	     -3.39677858	    -13.72234318	      1.60141699	     33.79290912	     90.00000001	      0.00000000	      0.00000000	     -3.35319856	     -9.52440800	    -10.39297290	     27.28599111	     90.00000001	      0.00000000	      0.00000000
      3.27000000	      3.44436972	     -2.56484149	      0.67229258	      1.94514587	      0.93306880	     -0.13922566	      0.59494981	     -2.80533405	     -1.50270704	     54.56783117	      6.04820504	      0.95238832	     -9.03417624	    -18.79526574	     -7.50002886	      7.33560054	     -4.29846862	      2.49985586	      9.01012667	      7.18083489	      0.15725638	     -7.91790987	    -17.84099352	     -7.50002886	    -14.37599285	      1.31846459	     -3.06210937	     -3.71834288	    -13.44420266	      1.61349893	     33.41063480	     90.00000001	      0.00000000	      0.00000000	     -2.60643779	     -9.88366290	     -9.90464593	     28.14649955	     90.00000001	      0.00000000	      0.00000000
      3.28000000	      3.56187605	     -2.66154447	      1.16272844	      1.95564141	      0.93501857	     -0.14071660	      1.82339897	     -2.58238610	     -1.87037355	     55.06774950	      6.25519393	      0.96111354	     -7.93927766	    -18.77711439	     -7.50002824	      6.14159309	     -4.26662207	      2.77436887	      8.29645304	      7.05488988	      0.14480042	     -7.59632314	    -17.59094509	     -7.50002824	    -14.38363183	      1.51566986	     -3.66735439	     -4.11740624	    -13.16715473	      1.58235534	     33.04990202	     90.00000001	      0.00000000	      0.00000000	     -1.84762470	    -10.25970470	     -9.41631580	     29.01431689	     90.00000001	      0.00000000	      0.00000000
      3.29000000	      3.68122955	     -2.73482509	      1.68832307	      1.96618153	      0.93667100	     -0.14199219	      3.00299454	     -2.35558293	     -2.16063203	     55.30016872	      6.52507207	      0.96517002	     -7.09798070	    -18.81352242	     -7.50002788	      5.02785311	     -4.31024488	      2.78518679	      7.74670345	      7.06630018	      0.13520548	     -7.25406475	    -17.23074337	     -7.50002788	    -14.37666675	      1.65799939	     -4.32104813	     -4.56928650	    -12.86433431	      1.56571182	     32.81703221	     90.00000001	      0.00000000	      0.00000000	     -1.02170915	    -10.66399364	     -9.11728909	     29.72740664	     90.00000001	      0.00000000	      0.00000000
      3.30000000	      3.83096059	     -2.75669375	      2.42410471	      1.97683937	      0.93807087	     -0.14326749	      3.98143780	     -2.20353933	     -2.53507857	     55.11953774	      6.94989523	      0.96201742	     -5.94315786	    -18.66074134	     -7.50002542	      3.79319576	     -4.23463500	      3.61965924	      6.94351549	      6.93218595	      0.12118721	     -7.12242318	    -17.37005647	     -7.50002542	    -14.38112246	      1.74796222	     -5.14149998	     -4.80377248	    -12.25005343	      0.58910900	     32.05151997	     90.00000001	      0.00000000	      0.00000000	     -1.13788566	    -11.93292799	     -5.57721145	     32.29253888	     90.00000001	      0.00000000	      0.00000000
      3.31000000	      3.95436309	     -2.77788598	      3.10945177	      1.98751766	      0.93916757	     -0.14436229	      4.96857558	     -2.04725769	     -2.83701141	     54.71044318	      7.37466025	      0.95487737	     -5.06975295	    -18.59124341	     -7.50002282	      2.67973811	     -4.22688653	      4.00445355	      6.35158803	      6.85726725	      0.11085612	     -6.82988143	    -17.07181182	     -7.50002282	    -14.34480873	      1.82568100	     -5.85928364	     -5.40590953	    -11.79755170	     -0.03489765	     32.00538695	     90.00000001	      0.00000000	      0.00000000	     -0.61711702	    -12.81875102	     -3.68403791	     33.60353192	     90.00000001	      0.00000000	      0.00000000
